<svg clip-rule="evenodd" stroke-linecap="round" stroke-linejoin="round" stroke-miterlimit="10" viewBox="0 0 48 48" xmlns="http://www.w3.org/2000/svg"><path d="m7.33333 14c-1.84095 0-3.33333 1.4924-3.33333 3.3333v13.3334c0 1.8409 1.49238 3.3333 3.33333 3.3333h33.33337c1.8409 0 3.3333-1.4924 3.3333-3.3333v-13.3334c0-1.8409-1.4924-3.3333-3.3333-3.3333m-33.33337 3.3333h33.33337v13.3334h-33.33337m1.66667-11.6667v2.5h5.4167l-5.4167 7.5h2.9167l5.4166-7.5v-2.5m2.0834 0v2.5h2.5v-2.5m2.0833 0v2.5h2.5v7.5h2.5v-10m3.3333 0c-.9204 0-1.6666.7462-1.6666 1.6667v6.6666c0 .9205.7462 1.6667 1.6666 1.6667h5c.9205 0 1.6667-.7462 1.6667-1.6667v-6.6666c0-.9205-.7462-1.6667-1.6667-1.6667m-4.1666 2.5h3.3333v5h-3.3333m-13.75 0v2.5h2.5v-2.5" fill="#1d4ed8"/></svg>